<svg width="293" height="100" viewBox="0 0 293 100" fill="none" xmlns="http://www.w3.org/2000/svg">
    <rect y="20" width="293" height="60" fill="white"/>
    <rect x="0.5" y="20.5" width="292" height="59" stroke="black" stroke-opacity="0.6"/>
    <path fill-rule="evenodd" clip-rule="evenodd" d="M265.545 41.5C262.207 41.5 259.5 44.2067 259.5 47.5455C259.5 50.8843 262.207 53.591 265.545 53.591C268.884 53.591 271.591 50.8843 271.591 47.5455C271.591 44.2067 268.884 41.5 265.545 41.5ZM258.5 47.5455C258.5 43.6544 261.654 40.5 265.545 40.5C269.437 40.5 272.591 43.6544 272.591 47.5455C272.591 51.4366 269.437 54.591 265.545 54.591C261.654 54.591 258.5 51.4366 258.5 47.5455Z" fill="black"/>
    <path fill-rule="evenodd" clip-rule="evenodd" d="M270.101 52.1009C270.296 51.9056 270.613 51.9056 270.808 52.1009L277.354 58.6464C277.549 58.8416 277.549 59.1582 277.354 59.3535C277.158 59.5487 276.842 59.5487 276.647 59.3535L270.101 52.808C269.906 52.6127 269.906 52.2961 270.101 52.1009Z" fill="black"/>
    <path d="M29.106 45.92C28.98 43.58 27.468 42.032 24.552 42.032C21.726 42.032 19.89 43.652 19.89 45.884C19.89 47.684 20.844 49.124 23.544 49.628L25.47 49.97C27.162 50.258 27.81 51.086 27.81 52.274C27.81 53.732 27 54.92 24.552 54.92C22.338 54.92 21.312 53.606 21.114 52.13H19.368C19.512 54.56 21.33 56.27 24.516 56.27C27.81 56.27 29.52 54.65 29.52 52.13C29.52 50.168 28.584 48.854 25.902 48.368L23.958 48.026C22.338 47.72 21.654 47 21.654 45.74C21.654 44.426 22.662 43.364 24.534 43.364C26.46 43.364 27.234 44.57 27.396 45.92H29.106ZM38.2296 50.42H33.3696C33.5676 48.692 34.3956 47.504 35.9076 47.504C37.5636 47.504 38.1936 48.728 38.2296 50.312V50.42ZM39.7596 53.516H38.1936C38.0316 54.074 37.6176 54.992 36.0336 54.992C34.2516 54.992 33.4596 53.66 33.3516 51.698H39.8856V50.87C39.8856 48.476 38.7696 46.28 35.9256 46.28C33.2076 46.28 31.6956 48.494 31.6956 51.302C31.6956 54.128 33.0816 56.234 35.9796 56.234C38.0136 56.234 39.4176 55.154 39.7596 53.516ZM44.8861 54.848C43.8601 54.848 43.2301 54.326 43.2301 53.354C43.2301 52.85 43.3921 52.454 43.7521 52.184C44.3641 51.734 45.5341 51.572 47.5861 51.482V51.698C47.5861 54.038 46.0921 54.848 44.8861 54.848ZM43.6261 49.106C43.6801 48.296 44.2021 47.486 45.6061 47.486C46.9381 47.486 47.5861 48.152 47.5861 49.862V50.276C45.4621 50.348 43.9861 50.528 42.9961 51.05C42.0241 51.536 41.5741 52.4 41.5741 53.444C41.5741 55.136 42.6901 56.162 44.5801 56.162C45.9841 56.162 47.1181 55.514 47.6221 54.398H47.6581C47.8201 55.532 48.3241 56.072 49.8361 56.072H50.0341V54.758C49.3321 54.74 49.1701 54.434 49.1701 53.678V49.808C49.1701 47.27 48.0181 46.28 45.6601 46.28C43.3921 46.28 42.1141 47.432 42.0781 49.106H43.6261ZM52.3873 56H54.0073V50.834C54.0073 48.998 55.1233 48.026 56.8153 48.026H57.1213V46.334H56.9593C55.5733 46.334 54.3853 47.306 53.9533 48.296H53.9173V46.514H52.3873V56ZM66.4068 49.376C66.2448 47.144 64.5348 46.28 62.6448 46.28C59.9808 46.28 58.3968 48.404 58.3968 51.302C58.3968 54.308 59.8728 56.216 62.6088 56.216C64.6608 56.216 66.2268 55.1 66.4608 52.904H64.9488C64.8948 53.624 64.4268 54.956 62.6268 54.956C60.7188 54.956 60.0528 53.426 60.0528 51.23C60.0528 49.016 60.9528 47.522 62.6628 47.522C64.0308 47.522 64.7148 48.404 64.8228 49.376H66.4068ZM74.8353 56H76.4553V49.394C76.4553 47.144 75.2493 46.28 73.4313 46.28C71.8833 46.28 70.8753 47.162 70.4613 48.08H70.4253V41.816H68.8053V56H70.4253V50.312C70.4253 48.764 71.2353 47.63 72.9993 47.63C73.6293 47.63 74.1693 47.81 74.4933 48.26C74.8353 48.71 74.8353 49.448 74.8353 50.132V56Z" fill="black" fill-opacity="0.6"/>
</svg>
