<svg width="706" height="664" viewBox="0 0 706 664" fill="none" xmlns="http://www.w3.org/2000/svg">
    <rect width="706" height="664" fill="white"/>
    <rect x="167" y="115" width="294" height="60" fill="white"/>
    <rect x="167.5" y="115.5" width="293" height="59" stroke="black" stroke-opacity="0.6"/>
    <g opacity="0.6">
        <path fill-rule="evenodd" clip-rule="evenodd" d="M443.354 137.646C443.549 137.842 443.549 138.158 443.354 138.354L429.354 152.354C429.158 152.549 428.842 152.549 428.646 152.354C428.451 152.158 428.451 151.842 428.646 151.646L442.646 137.646C442.842 137.451 443.158 137.451 443.354 137.646Z" fill="black"/>
        <path fill-rule="evenodd" clip-rule="evenodd" d="M428.646 137.646C428.842 137.451 429.158 137.451 429.354 137.646L443.354 151.646C443.549 151.842 443.549 152.158 443.354 152.354C443.158 152.549 442.842 152.549 442.646 152.354L428.646 138.354C428.451 138.158 428.451 137.842 428.646 137.646Z" fill="black"/>
    </g>
    <path d="M186.872 151H188.492V139.174H188.546C188.546 139.174 188.798 139.894 189.284 141.334L192.668 151H194.252L197.726 141.334C198.248 139.876 198.464 139.174 198.464 139.174H198.518V151H200.228V137.23H197.708L194.162 147.094C193.73 148.3 193.55 148.894 193.55 148.894H193.514C193.514 148.894 193.334 148.3 192.902 147.094L189.41 137.23H186.872V151ZM213.227 140.92C213.101 138.58 211.589 137.032 208.673 137.032C205.847 137.032 204.011 138.652 204.011 140.884C204.011 142.684 204.965 144.124 207.665 144.628L209.591 144.97C211.283 145.258 211.931 146.086 211.931 147.274C211.931 148.732 211.121 149.92 208.673 149.92C206.459 149.92 205.433 148.606 205.235 147.13H203.489C203.633 149.56 205.451 151.27 208.637 151.27C211.931 151.27 213.641 149.65 213.641 147.13C213.641 145.168 212.705 143.854 210.023 143.368L208.079 143.026C206.459 142.72 205.775 142 205.775 140.74C205.775 139.426 206.783 138.364 208.655 138.364C210.581 138.364 211.355 139.57 211.517 140.92H213.227Z" fill="black" fill-opacity="0.86"/>
    <rect x="168.5" y="195.5" width="291" height="47" fill="white" stroke="#D1CECC"/>
    <path d="M186.872 224H188.492V212.174H188.546C188.546 212.174 188.798 212.894 189.284 214.334L192.668 224H194.252L197.726 214.334C198.248 212.876 198.464 212.174 198.464 212.174H198.518V224H200.228V210.23H197.708L194.162 220.094C193.73 221.3 193.55 221.894 193.55 221.894H193.514C193.514 221.894 193.334 221.3 192.902 220.094L189.41 210.23H186.872V224ZM213.227 213.92C213.101 211.58 211.589 210.032 208.673 210.032C205.847 210.032 204.011 211.652 204.011 213.884C204.011 215.684 204.965 217.124 207.665 217.628L209.591 217.97C211.283 218.258 211.931 219.086 211.931 220.274C211.931 221.732 211.121 222.92 208.673 222.92C206.459 222.92 205.433 221.606 205.235 220.13H203.489C203.633 222.56 205.451 224.27 208.637 224.27C211.931 224.27 213.641 222.65 213.641 220.13C213.641 218.168 212.705 216.854 210.023 216.368L208.079 216.026C206.459 215.72 205.775 215 205.775 213.74C205.775 212.426 206.783 211.364 208.655 211.364C210.581 211.364 211.355 212.57 211.517 213.92H213.227ZM223.421 218.15H229.415V216.692H223.421V211.724H229.973V210.23H221.747V224H223.421V218.15ZM232.36 224H233.98V218.834C233.98 216.998 235.096 216.026 236.788 216.026H237.094V214.334H236.932C235.546 214.334 234.358 215.306 233.926 216.296H233.89V214.514H232.36V224ZM241.663 222.848C240.637 222.848 240.007 222.326 240.007 221.354C240.007 220.85 240.169 220.454 240.529 220.184C241.141 219.734 242.311 219.572 244.363 219.482V219.698C244.363 222.038 242.869 222.848 241.663 222.848ZM240.403 217.106C240.457 216.296 240.979 215.486 242.383 215.486C243.715 215.486 244.363 216.152 244.363 217.862V218.276C242.239 218.348 240.763 218.528 239.773 219.05C238.801 219.536 238.351 220.4 238.351 221.444C238.351 223.136 239.467 224.162 241.357 224.162C242.761 224.162 243.895 223.514 244.399 222.398H244.435C244.597 223.532 245.101 224.072 246.613 224.072H246.811V222.758C246.109 222.74 245.947 222.434 245.947 221.678V217.808C245.947 215.27 244.795 214.28 242.437 214.28C240.169 214.28 238.891 215.432 238.855 217.106H240.403ZM249.165 224H250.785V218.276C250.785 216.764 251.577 215.63 253.341 215.63C253.971 215.63 254.493 215.81 254.817 216.26C255.159 216.728 255.159 217.448 255.159 218.132V224H256.779V218.312C256.779 216.764 257.571 215.63 259.335 215.63C259.965 215.63 260.487 215.792 260.811 216.242C261.153 216.71 261.153 217.448 261.153 218.132V224H262.773V217.394C262.773 215.144 261.549 214.28 259.767 214.28C258.201 214.28 257.031 215.252 256.671 216.242H256.635C256.293 214.928 255.213 214.28 253.773 214.28C252.261 214.28 251.163 215.144 250.731 216.116H250.695V214.514H249.165V224Z" fill="#383735"/>
    <rect x="168.5" y="263.5" width="291" height="47" fill="white" stroke="#D1CECC"/>
    <path d="M186.872 292H188.492V280.174H188.546C188.546 280.174 188.798 280.894 189.284 282.334L192.668 292H194.252L197.726 282.334C198.248 280.876 198.464 280.174 198.464 280.174H198.518V292H200.228V278.23H197.708L194.162 288.094C193.73 289.3 193.55 289.894 193.55 289.894H193.514C193.514 289.894 193.334 289.3 192.902 288.094L189.41 278.23H186.872V292ZM213.227 281.92C213.101 279.58 211.589 278.032 208.673 278.032C205.847 278.032 204.011 279.652 204.011 281.884C204.011 283.684 204.965 285.124 207.665 285.628L209.591 285.97C211.283 286.258 211.931 287.086 211.931 288.274C211.931 289.732 211.121 290.92 208.673 290.92C206.459 290.92 205.433 289.606 205.235 288.13H203.489C203.633 290.56 205.451 292.27 208.637 292.27C211.931 292.27 213.641 290.65 213.641 288.13C213.641 286.168 212.705 284.854 210.023 284.368L208.079 284.026C206.459 283.72 205.775 283 205.775 281.74C205.775 280.426 206.783 279.364 208.655 279.364C210.581 279.364 211.355 280.57 211.517 281.92H213.227ZM221.747 292H223.349V280.444H223.385C223.385 280.444 223.565 280.876 224.105 281.776L230.207 292H232.349V278.23H230.765V289.822H230.711C230.711 289.822 230.477 289.228 230.009 288.472L223.889 278.23H221.747V292ZM239.172 292.234C241.836 292.234 243.438 290.218 243.438 287.248C243.438 284.314 242.034 282.28 239.208 282.28C236.562 282.28 234.942 284.314 234.942 287.248C234.942 290.218 236.382 292.234 239.172 292.234ZM239.19 283.522C241.008 283.522 241.764 284.944 241.764 287.248C241.764 289.57 240.99 290.974 239.226 290.974C237.39 290.974 236.616 289.57 236.616 287.248C236.616 284.944 237.462 283.522 239.19 283.522ZM246.001 292H247.621V286.834C247.621 284.998 248.737 284.026 250.429 284.026H250.735V282.334H250.573C249.187 282.334 247.999 283.306 247.567 284.296H247.531V282.514H246.001V292ZM258.886 287.896C258.886 289.624 257.86 290.956 256.186 290.956C254.296 290.956 253.666 289.39 253.666 287.248C253.666 285.016 254.494 283.576 256.312 283.576C257.824 283.576 258.886 284.872 258.886 286.888V287.896ZM260.47 277.816H258.85V283.954H258.814C258.436 283.072 257.518 282.28 256.096 282.28C253.702 282.28 252.01 284.062 252.01 287.32C252.01 290.974 253.864 292.234 255.88 292.234C257.338 292.234 258.364 291.37 258.868 290.434H258.922V292H260.47V277.816ZM265.48 289.102L267.064 287.32L269.836 292H271.726L268.162 286.078L271.33 282.514H269.44L265.48 287.086V277.816H263.86V292H265.48V289.102ZM276.257 290.848C275.231 290.848 274.601 290.326 274.601 289.354C274.601 288.85 274.763 288.454 275.123 288.184C275.735 287.734 276.905 287.572 278.957 287.482V287.698C278.957 290.038 277.463 290.848 276.257 290.848ZM274.997 285.106C275.051 284.296 275.573 283.486 276.977 283.486C278.309 283.486 278.957 284.152 278.957 285.862V286.276C276.833 286.348 275.357 286.528 274.367 287.05C273.395 287.536 272.945 288.4 272.945 289.444C272.945 291.136 274.061 292.162 275.951 292.162C277.355 292.162 278.489 291.514 278.993 290.398H279.029C279.191 291.532 279.695 292.072 281.207 292.072H281.405V290.758C280.703 290.74 280.541 290.434 280.541 289.678V285.808C280.541 283.27 279.389 282.28 277.031 282.28C274.763 282.28 273.485 283.432 273.449 285.106H274.997ZM285.324 287.608V286.6C285.324 284.998 286.35 283.576 288.024 283.576C289.968 283.576 290.562 285.106 290.562 287.122C290.562 289.606 289.734 290.956 288.042 290.956C286.242 290.956 285.324 289.48 285.324 287.608ZM283.758 295.384H285.378V290.614H285.414C285.774 291.46 286.89 292.234 288.276 292.234C290.418 292.234 292.2 290.578 292.2 287.122C292.2 283.522 290.4 282.28 288.384 282.28C286.944 282.28 285.918 283.09 285.36 284.098H285.324V282.514H283.758V295.384ZM296.328 287.608V286.6C296.328 284.998 297.354 283.576 299.028 283.576C300.972 283.576 301.566 285.106 301.566 287.122C301.566 289.606 300.738 290.956 299.046 290.956C297.246 290.956 296.328 289.48 296.328 287.608ZM294.762 295.384H296.382V290.614H296.418C296.778 291.46 297.894 292.234 299.28 292.234C301.422 292.234 303.204 290.578 303.204 287.122C303.204 283.522 301.404 282.28 299.388 282.28C297.948 282.28 296.922 283.09 296.364 284.098H296.328V282.514H294.762V295.384Z" fill="#383735"/>
    <rect x="168.5" y="331.5" width="291" height="47" fill="white" stroke="#D1CECC"/>
    <path d="M186.872 360H188.492V348.174H188.546C188.546 348.174 188.798 348.894 189.284 350.334L192.668 360H194.252L197.726 350.334C198.248 348.876 198.464 348.174 198.464 348.174H198.518V360H200.228V346.23H197.708L194.162 356.094C193.73 357.3 193.55 357.894 193.55 357.894H193.514C193.514 357.894 193.334 357.3 192.902 356.094L189.41 346.23H186.872V360ZM213.227 349.92C213.101 347.58 211.589 346.032 208.673 346.032C205.847 346.032 204.011 347.652 204.011 349.884C204.011 351.684 204.965 353.124 207.665 353.628L209.591 353.97C211.283 354.258 211.931 355.086 211.931 356.274C211.931 357.732 211.121 358.92 208.673 358.92C206.459 358.92 205.433 357.606 205.235 356.13H203.489C203.633 358.56 205.451 360.27 208.637 360.27C211.931 360.27 213.641 358.65 213.641 356.13C213.641 354.168 212.705 352.854 210.023 352.368L208.079 352.026C206.459 351.72 205.775 351 205.775 349.74C205.775 348.426 206.783 347.364 208.655 347.364C210.581 347.364 211.355 348.57 211.517 349.92H213.227ZM225.743 354.744C228.569 354.744 230.621 353.376 230.621 350.46C230.621 347.49 228.551 346.23 225.887 346.23H221.747V360H223.421V354.744H225.743ZM223.421 353.394V347.58H225.797C227.741 347.58 228.893 348.408 228.893 350.46C228.893 352.422 227.741 353.394 225.743 353.394H223.421ZM236.359 360.234C239.023 360.234 240.625 358.218 240.625 355.248C240.625 352.314 239.221 350.28 236.395 350.28C233.749 350.28 232.129 352.314 232.129 355.248C232.129 358.218 233.569 360.234 236.359 360.234ZM236.377 351.522C238.195 351.522 238.951 352.944 238.951 355.248C238.951 357.57 238.177 358.974 236.413 358.974C234.577 358.974 233.803 357.57 233.803 355.248C233.803 352.944 234.649 351.522 236.377 351.522ZM243.188 360H244.808V345.816H243.188V360ZM250.54 358.848C249.514 358.848 248.884 358.326 248.884 357.354C248.884 356.85 249.046 356.454 249.406 356.184C250.018 355.734 251.188 355.572 253.24 355.482V355.698C253.24 358.038 251.746 358.848 250.54 358.848ZM249.28 353.106C249.334 352.296 249.856 351.486 251.26 351.486C252.592 351.486 253.24 352.152 253.24 353.862V354.276C251.116 354.348 249.64 354.528 248.65 355.05C247.678 355.536 247.228 356.4 247.228 357.444C247.228 359.136 248.344 360.162 250.234 360.162C251.638 360.162 252.772 359.514 253.276 358.398H253.312C253.474 359.532 253.978 360.072 255.49 360.072H255.688V358.758C254.986 358.74 254.824 358.434 254.824 357.678V353.808C254.824 351.27 253.672 350.28 251.314 350.28C249.046 350.28 247.768 351.432 247.732 353.106H249.28ZM258.042 360H259.662V354.834C259.662 352.998 260.778 352.026 262.47 352.026H262.776V350.334H262.614C261.228 350.334 260.04 351.306 259.608 352.296H259.572V350.514H258.042V360ZM265.073 360H266.693V345.816H265.073V360ZM272.281 360L272.101 360.504C271.687 361.782 271.291 362.232 270.085 362.232C269.923 362.232 269.563 362.214 269.257 362.142V363.474C269.509 363.528 269.869 363.582 270.229 363.582C272.281 363.582 272.911 362.772 273.667 360.594L277.123 350.514H275.503L273.559 356.436C273.253 357.354 273.091 357.93 273.091 357.93H273.037C273.037 357.93 272.875 357.354 272.569 356.454L270.589 350.514H268.969L272.281 360ZM285.557 352.89C285.395 351.234 284.225 350.28 282.173 350.28C280.013 350.28 278.735 351.486 278.735 353.16C278.735 354.816 279.635 355.518 281.327 355.788L282.785 356.004C284.081 356.22 284.279 356.634 284.279 357.39C284.279 358.38 283.469 358.992 282.173 358.992C280.499 358.992 280.085 358.056 280.013 357.318H278.429C278.555 359.352 280.175 360.234 282.137 360.234C284.297 360.234 285.845 359.208 285.845 357.3C285.845 355.662 285.125 354.852 283.145 354.546L281.687 354.33C280.733 354.168 280.265 353.808 280.265 353.034C280.265 352.152 281.003 351.504 282.119 351.504C283.235 351.504 283.919 352.044 284.009 352.89H285.557Z" fill="#383735"/>
    <rect x="168.5" y="399.5" width="291" height="47" fill="white" stroke="#D1CECC"/>
    <path d="M186.872 428H188.492V416.174H188.546C188.546 416.174 188.798 416.894 189.284 418.334L192.668 428H194.252L197.726 418.334C198.248 416.876 198.464 416.174 198.464 416.174H198.518V428H200.228V414.23H197.708L194.162 424.094C193.73 425.3 193.55 425.894 193.55 425.894H193.514C193.514 425.894 193.334 425.3 192.902 424.094L189.41 414.23H186.872V428ZM213.227 417.92C213.101 415.58 211.589 414.032 208.673 414.032C205.847 414.032 204.011 415.652 204.011 417.884C204.011 419.684 204.965 421.124 207.665 421.628L209.591 421.97C211.283 422.258 211.931 423.086 211.931 424.274C211.931 425.732 211.121 426.92 208.673 426.92C206.459 426.92 205.433 425.606 205.235 424.13H203.489C203.633 426.56 205.451 428.27 208.637 428.27C211.931 428.27 213.641 426.65 213.641 424.13C213.641 422.168 212.705 420.854 210.023 420.368L208.079 420.026C206.459 419.72 205.775 419 205.775 417.74C205.775 416.426 206.783 415.364 208.655 415.364C210.581 415.364 211.355 416.57 211.517 417.92H213.227ZM221.747 428H223.349V416.444H223.385C223.385 416.444 223.565 416.876 224.105 417.776L230.207 428H232.349V414.23H230.765V425.822H230.711C230.711 425.822 230.477 425.228 230.009 424.472L223.889 414.23H221.747V428ZM239.172 428.234C241.836 428.234 243.438 426.218 243.438 423.248C243.438 420.314 242.034 418.28 239.208 418.28C236.562 418.28 234.942 420.314 234.942 423.248C234.942 426.218 236.382 428.234 239.172 428.234ZM239.19 419.522C241.008 419.522 241.764 420.944 241.764 423.248C241.764 425.57 240.99 426.974 239.226 426.974C237.39 426.974 236.616 425.57 236.616 423.248C236.616 420.944 237.462 419.522 239.19 419.522ZM246.001 428H247.621V422.834C247.621 420.998 248.737 420.026 250.429 420.026H250.735V418.334H250.573C249.187 418.334 247.999 419.306 247.567 420.296H247.531V418.514H246.001V428ZM258.886 423.896C258.886 425.624 257.86 426.956 256.186 426.956C254.296 426.956 253.666 425.39 253.666 423.248C253.666 421.016 254.494 419.576 256.312 419.576C257.824 419.576 258.886 420.872 258.886 422.888V423.896ZM260.47 413.816H258.85V419.954H258.814C258.436 419.072 257.518 418.28 256.096 418.28C253.702 418.28 252.01 420.062 252.01 423.32C252.01 426.974 253.864 428.234 255.88 428.234C257.338 428.234 258.364 427.37 258.868 426.434H258.922V428H260.47V413.816ZM269.89 428H271.51V421.394C271.51 419.144 270.304 418.28 268.486 418.28C266.974 418.28 265.876 419.144 265.426 420.116H265.39V418.514H263.86V428H265.48V422.312C265.48 420.764 266.29 419.63 268.054 419.63C268.684 419.63 269.224 419.81 269.548 420.26C269.89 420.71 269.89 421.466 269.89 422.15V428ZM278.195 428.234C280.859 428.234 282.461 426.218 282.461 423.248C282.461 420.314 281.057 418.28 278.231 418.28C275.585 418.28 273.965 420.314 273.965 423.248C273.965 426.218 275.405 428.234 278.195 428.234ZM278.213 419.522C280.031 419.522 280.787 420.944 280.787 423.248C280.787 425.57 280.013 426.974 278.249 426.974C276.413 426.974 275.639 425.57 275.639 423.248C275.639 420.944 276.485 419.522 278.213 419.522ZM285.024 428H286.644V422.834C286.644 420.998 287.76 420.026 289.452 420.026H289.758V418.334H289.596C288.21 418.334 287.022 419.306 286.59 420.296H286.554V418.514H285.024V428ZM297.91 423.698C297.91 425.318 296.812 426.65 295.282 426.65C293.284 426.65 292.69 425.21 292.69 423.122C292.69 420.98 293.5 419.558 295.21 419.558C296.848 419.558 297.91 420.854 297.91 422.744V423.698ZM295.138 431.582C297.712 431.582 299.458 430.43 299.458 427.766V418.514H297.91V420.008H297.874C297.478 419.126 296.56 418.28 295.03 418.28C292.69 418.28 291.034 419.99 291.034 423.122C291.034 426.632 292.852 427.874 294.832 427.874C296.254 427.874 297.37 427.064 297.856 426.128H297.874V427.532C297.874 429.62 296.974 430.286 295.174 430.286C293.626 430.286 293.014 429.764 292.833 428.954H291.268C291.484 430.916 293.338 431.582 295.138 431.582ZM308.536 422.42H303.676C303.874 420.692 304.702 419.504 306.214 419.504C307.87 419.504 308.5 420.728 308.536 422.312V422.42ZM310.066 425.516H308.5C308.338 426.074 307.924 426.992 306.34 426.992C304.558 426.992 303.766 425.66 303.658 423.698H310.192V422.87C310.192 420.476 309.076 418.28 306.232 418.28C303.514 418.28 302.002 420.494 302.002 423.302C302.002 426.128 303.388 428.234 306.286 428.234C308.32 428.234 309.724 427.154 310.066 425.516Z" fill="#383735"/>
    <rect x="168.5" y="467.5" width="291" height="47" fill="white" stroke="#D1CECC"/>
    <path d="M186.872 496H188.492V484.174H188.546C188.546 484.174 188.798 484.894 189.284 486.334L192.668 496H194.252L197.726 486.334C198.248 484.876 198.464 484.174 198.464 484.174H198.518V496H200.228V482.23H197.708L194.162 492.094C193.73 493.3 193.55 493.894 193.55 493.894H193.514C193.514 493.894 193.334 493.3 192.902 492.094L189.41 482.23H186.872V496ZM213.227 485.92C213.101 483.58 211.589 482.032 208.673 482.032C205.847 482.032 204.011 483.652 204.011 485.884C204.011 487.684 204.965 489.124 207.665 489.628L209.591 489.97C211.283 490.258 211.931 491.086 211.931 492.274C211.931 493.732 211.121 494.92 208.673 494.92C206.459 494.92 205.433 493.606 205.235 492.13H203.489C203.633 494.56 205.451 496.27 208.637 496.27C211.931 496.27 213.641 494.65 213.641 492.13C213.641 490.168 212.705 488.854 210.023 488.368L208.079 488.026C206.459 487.72 205.775 487 205.775 485.74C205.775 484.426 206.783 483.364 208.655 483.364C210.581 483.364 211.355 484.57 211.517 485.92H213.227ZM231.359 482.23H220.145V483.688H224.915V496H226.589V483.688H231.359V482.23ZM231.973 496H233.593V490.834C233.593 488.998 234.709 488.026 236.401 488.026H236.707V486.334H236.545C235.159 486.334 233.971 487.306 233.539 488.296H233.503V486.514H231.973V496ZM242.213 496.234C244.877 496.234 246.479 494.218 246.479 491.248C246.479 488.314 245.075 486.28 242.249 486.28C239.603 486.28 237.983 488.314 237.983 491.248C237.983 494.218 239.423 496.234 242.213 496.234ZM242.231 487.522C244.049 487.522 244.805 488.944 244.805 491.248C244.805 493.57 244.031 494.974 242.267 494.974C240.431 494.974 239.657 493.57 239.657 491.248C239.657 488.944 240.503 487.522 242.231 487.522ZM249.042 496H250.662V481.816H249.042V496ZM254.034 496H255.654V481.816H254.034V496ZM261.024 487.756H263.292V486.514H261.024V484.588C261.024 483.454 261.474 483.112 262.41 483.112C262.824 483.112 263.112 483.148 263.292 483.184V481.852C263.004 481.798 262.644 481.762 262.284 481.762C260.52 481.762 259.404 482.446 259.404 484.39V486.514H257.676V487.756H259.404V496H261.024V487.756ZM265.441 484.354H267.151V482.608H265.441V484.354ZM264.379 499.582C265.909 499.582 267.115 498.862 267.115 496.972V486.514H265.477V496.846C265.477 497.854 265.045 498.196 264.235 498.196C263.911 498.196 263.641 498.16 263.407 498.088V499.456C263.659 499.528 264.019 499.582 264.379 499.582ZM273.889 496.234C276.553 496.234 278.155 494.218 278.155 491.248C278.155 488.314 276.751 486.28 273.925 486.28C271.279 486.28 269.659 488.314 269.659 491.248C269.659 494.218 271.099 496.234 273.889 496.234ZM273.907 487.522C275.725 487.522 276.481 488.944 276.481 491.248C276.481 493.57 275.707 494.974 273.943 494.974C272.107 494.974 271.333 493.57 271.333 491.248C271.333 488.944 272.179 487.522 273.907 487.522ZM280.717 496H282.337V490.834C282.337 488.998 283.453 488.026 285.145 488.026H285.451V486.334H285.289C283.903 486.334 282.715 487.306 282.283 488.296H282.247V486.514H280.717V496ZM293.603 491.896C293.603 493.624 292.577 494.956 290.903 494.956C289.013 494.956 288.383 493.39 288.383 491.248C288.383 489.016 289.211 487.576 291.029 487.576C292.541 487.576 293.603 488.872 293.603 490.888V491.896ZM295.187 481.816H293.567V487.954H293.531C293.153 487.072 292.235 486.28 290.813 486.28C288.419 486.28 286.727 488.062 286.727 491.32C286.727 494.974 288.581 496.234 290.597 496.234C292.055 496.234 293.081 495.37 293.585 494.434H293.639V496H295.187V481.816Z" fill="#383735"/>
    <rect x="168.5" y="535.5" width="291" height="47" fill="white" stroke="#D1CECC"/>
    <path d="M186.872 565.208H188.492V553.382H188.546C188.546 553.382 188.798 554.102 189.284 555.542L192.668 565.208H194.252L197.726 555.542C198.248 554.084 198.464 553.382 198.464 553.382H198.518V565.208H200.228V551.438H197.708L194.162 561.302C193.73 562.508 193.55 563.102 193.55 563.102H193.514C193.514 563.102 193.334 562.508 192.902 561.302L189.41 551.438H186.872V565.208ZM213.227 555.128C213.101 552.788 211.589 551.24 208.673 551.24C205.847 551.24 204.011 552.86 204.011 555.092C204.011 556.892 204.965 558.332 207.665 558.836L209.591 559.178C211.283 559.466 211.931 560.294 211.931 561.482C211.931 562.94 211.121 564.128 208.673 564.128C206.459 564.128 205.433 562.814 205.235 561.338H203.489C203.633 563.768 205.451 565.478 208.637 565.478C211.931 565.478 213.641 563.858 213.641 561.338C213.641 559.376 212.705 558.062 210.023 557.576L208.079 557.234C206.459 556.928 205.775 556.208 205.775 554.948C205.775 553.634 206.783 552.572 208.655 552.572C210.581 552.572 211.355 553.778 211.517 555.128H213.227ZM221.747 565.208H223.349V553.652H223.385C223.385 553.652 223.565 554.084 224.105 554.984L230.207 565.208H232.349V551.438H230.765V563.03H230.711C230.711 563.03 230.477 562.436 230.009 561.68L223.889 551.438H221.747V565.208ZM239.172 565.442C241.836 565.442 243.438 563.426 243.438 560.456C243.438 557.522 242.034 555.488 239.208 555.488C236.562 555.488 234.942 557.522 234.942 560.456C234.942 563.426 236.382 565.442 239.172 565.442ZM239.19 556.73C241.008 556.73 241.764 558.152 241.764 560.456C241.764 562.778 240.99 564.182 239.226 564.182C237.39 564.182 236.616 562.778 236.616 560.456C236.616 558.152 237.462 556.73 239.19 556.73ZM246.001 565.208H247.621V560.042C247.621 558.206 248.737 557.234 250.429 557.234H250.735V555.542H250.573C249.187 555.542 247.999 556.514 247.567 557.504H247.531V555.722H246.001V565.208ZM258.886 561.104C258.886 562.832 257.86 564.164 256.186 564.164C254.296 564.164 253.666 562.598 253.666 560.456C253.666 558.224 254.494 556.784 256.312 556.784C257.824 556.784 258.886 558.08 258.886 560.096V561.104ZM260.47 551.024H258.85V557.162H258.814C258.436 556.28 257.518 555.488 256.096 555.488C253.702 555.488 252.01 557.27 252.01 560.528C252.01 564.182 253.864 565.442 255.88 565.442C257.338 565.442 258.364 564.578 258.868 563.642H258.922V565.208H260.47V551.024ZM263.86 565.208H265.48V551.024H263.86V565.208ZM271.068 565.208L270.888 565.712C270.474 566.99 270.078 567.44 268.872 567.44C268.71 567.44 268.35 567.422 268.044 567.35V568.682C268.296 568.736 268.656 568.79 269.016 568.79C271.068 568.79 271.698 567.98 272.454 565.802L275.91 555.722H274.29L272.346 561.644C272.04 562.562 271.878 563.138 271.878 563.138H271.824C271.824 563.138 271.662 562.562 271.356 561.662L269.376 555.722H267.756L271.068 565.208ZM284.344 558.098C284.182 556.442 283.012 555.488 280.96 555.488C278.8 555.488 277.522 556.694 277.522 558.368C277.522 560.024 278.422 560.726 280.114 560.996L281.572 561.212C282.868 561.428 283.066 561.842 283.066 562.598C283.066 563.588 282.256 564.2 280.96 564.2C279.286 564.2 278.872 563.264 278.8 562.526H277.216C277.342 564.56 278.962 565.442 280.924 565.442C283.084 565.442 284.632 564.416 284.632 562.508C284.632 560.87 283.912 560.06 281.932 559.754L280.474 559.538C279.52 559.376 279.052 559.016 279.052 558.242C279.052 557.36 279.79 556.712 280.906 556.712C282.022 556.712 282.706 557.252 282.796 558.098H284.344Z" fill="#383735"/>
</svg>
