<svg width="293" height="100" viewBox="0 0 293 100" fill="none" xmlns="http://www.w3.org/2000/svg">
    <rect y="20" width="293" height="60" fill="white"/>
    <rect x="0.5" y="20.5" width="292" height="59" stroke="black" stroke-opacity="0.6"/>
    <path fill-rule="evenodd" clip-rule="evenodd" d="M275.354 42.6464C275.549 42.8417 275.549 43.1583 275.354 43.3536L261.354 57.3536C261.158 57.5488 260.842 57.5488 260.646 57.3536C260.451 57.1583 260.451 56.8417 260.646 56.6464L274.646 42.6464C274.842 42.4512 275.158 42.4512 275.354 42.6464Z" fill="black"/>
    <path fill-rule="evenodd" clip-rule="evenodd" d="M260.646 42.6464C260.842 42.4512 261.158 42.4512 261.354 42.6464L275.354 56.6464C275.549 56.8417 275.549 57.1583 275.354 57.3536C275.158 57.5488 274.842 57.5488 274.646 57.3536L260.646 43.3536C260.451 43.1583 260.451 42.8417 260.646 42.6464Z" fill="black"/>
    <path d="M19.872 56H21.492V44.174H21.546C21.546 44.174 21.798 44.894 22.284 46.334L25.668 56H27.252L30.726 46.334C31.248 44.876 31.464 44.174 31.464 44.174H31.518V56H33.228V42.23H30.708L27.162 52.094C26.73 53.3 26.55 53.894 26.55 53.894H26.514C26.514 53.894 26.334 53.3 25.902 52.094L22.41 42.23H19.872V56ZM46.2271 45.92C46.1011 43.58 44.5891 42.032 41.6731 42.032C38.8471 42.032 37.0111 43.652 37.0111 45.884C37.0111 47.684 37.9651 49.124 40.6651 49.628L42.5911 49.97C44.2831 50.258 44.9311 51.086 44.9311 52.274C44.9311 53.732 44.1211 54.92 41.6731 54.92C39.4591 54.92 38.4331 53.606 38.2351 52.13H36.4891C36.6331 54.56 38.4511 56.27 41.6371 56.27C44.9311 56.27 46.6411 54.65 46.6411 52.13C46.6411 50.168 45.7051 48.854 43.0231 48.368L41.0791 48.026C39.4591 47.72 38.7751 47 38.7751 45.74C38.7751 44.426 39.7831 43.364 41.6551 43.364C43.5811 43.364 44.3551 44.57 44.5171 45.92H46.2271ZM56.421 50.15H62.415V48.692H56.421V43.724H62.973V42.23H54.747V56H56.421V50.15ZM65.36 56H66.98V50.834C66.98 48.998 68.096 48.026 69.788 48.026H70.094V46.334H69.932C68.546 46.334 67.358 47.306 66.926 48.296H66.89V46.514H65.36V56ZM74.6634 54.848C73.6374 54.848 73.0074 54.326 73.0074 53.354C73.0074 52.85 73.1694 52.454 73.5294 52.184C74.1414 51.734 75.3114 51.572 77.3634 51.482V51.698C77.3634 54.038 75.8694 54.848 74.6634 54.848ZM73.4034 49.106C73.4574 48.296 73.9794 47.486 75.3834 47.486C76.7154 47.486 77.3634 48.152 77.3634 49.862V50.276C75.2394 50.348 73.7634 50.528 72.7734 51.05C71.8014 51.536 71.3514 52.4 71.3514 53.444C71.3514 55.136 72.4674 56.162 74.3574 56.162C75.7614 56.162 76.8954 55.514 77.3994 54.398H77.4354C77.5974 55.532 78.1014 56.072 79.6134 56.072H79.8114V54.758C79.1094 54.74 78.9474 54.434 78.9474 53.678V49.808C78.9474 47.27 77.7954 46.28 75.4374 46.28C73.1694 46.28 71.8914 47.432 71.8554 49.106H73.4034ZM82.1647 56H83.7847V50.276C83.7847 48.764 84.5767 47.63 86.3407 47.63C86.9707 47.63 87.4927 47.81 87.8167 48.26C88.1587 48.728 88.1587 49.448 88.1587 50.132V56H89.7787V50.312C89.7787 48.764 90.5707 47.63 92.3347 47.63C92.9647 47.63 93.4867 47.792 93.8107 48.242C94.1527 48.71 94.1527 49.448 94.1527 50.132V56H95.7727V49.394C95.7727 47.144 94.5487 46.28 92.7667 46.28C91.2007 46.28 90.0307 47.252 89.6707 48.242H89.6347C89.2927 46.928 88.2127 46.28 86.7727 46.28C85.2607 46.28 84.1627 47.144 83.7307 48.116H83.6947V46.514H82.1647V56Z" fill="black" fill-opacity="0.86"/>
</svg>
